<svg width="177" height="53" viewBox="0 0 177 53" fill="none" xmlns="http://www.w3.org/2000/svg">
<rect width="177" height="52" rx="14" fill="white"/>
<path d="M26.2883 18.418C26.2883 18.418 17.0582 30.5555 20.8068 38.7777H23.3506C23.3506 38.7777 25.192 42.2232 29.5772 42.693L27.8545 38.7777C27.8545 38.7777 30.3603 44.5724 36.7814 40.5004" fill="#AF8C70"/>
<path d="M29.5772 43.2571C29.5572 43.2571 29.5371 43.2561 29.517 43.2539C25.6146 42.8358 23.6131 40.2376 23.0326 39.3418H20.8067C20.5858 39.3418 20.3851 39.2128 20.2935 39.0117C19.3926 37.0357 19.1336 34.6919 19.5237 32.0455C19.8305 29.9638 20.5385 27.6883 21.6278 25.2819C23.4719 21.2085 25.7434 18.2026 25.8392 18.0766C26.0278 17.8286 26.3817 17.7804 26.6296 17.969C26.8775 18.1575 26.9257 18.5113 26.7373 18.7593C26.7145 18.7893 24.4373 21.805 22.6468 25.7665C21.0664 29.2634 19.5574 34.2185 21.1779 38.2136H23.3505C23.5586 38.2136 23.7498 38.3282 23.8479 38.5118C23.8516 38.5185 24.2942 39.3258 25.2322 40.1721C26.2224 41.0656 27.3651 41.6658 28.6399 41.9638L27.3414 39.0125C27.3392 39.0076 27.3377 39.004 27.3366 39.0016C27.2132 38.7163 27.3439 38.385 27.6288 38.2607C27.9138 38.1365 28.2455 38.2661 28.3706 38.5506L28.3728 38.5556C28.4038 38.6243 29.3125 40.5993 31.3022 41.2061C32.7866 41.6588 34.5285 41.2611 36.4792 40.0241C36.7422 39.8574 37.0908 39.9353 37.2577 40.1984C37.4245 40.4615 37.3465 40.81 37.0834 40.9769C34.8365 42.4017 32.7763 42.8406 30.9596 42.2811C30.5231 42.1466 30.1302 41.963 29.7788 41.7511L30.0934 42.466C30.1744 42.6503 30.1512 42.8637 30.0323 43.0262C29.9255 43.1722 29.7559 43.2571 29.5772 43.2571Z" fill="#683A32"/>
<path d="M67.2637 12.0441C67.2637 12.0441 80.1692 18.935 79.8575 30.3234L77.4645 31.1862C77.4645 31.1862 76.9008 35.052 72.9349 36.9812L73.2276 32.7137C73.2276 32.7137 72.8357 39.0148 65.4141 37.3619" fill="#AF8C70"/>
<path d="M67.7282 38.2031C66.9747 38.2031 66.1618 38.1063 65.2917 37.9125C64.9876 37.8448 64.796 37.5434 64.8637 37.2393C64.9314 36.9351 65.233 36.7438 65.5369 36.8113C67.7969 37.3146 69.5734 37.0957 70.8169 36.1608C72.4714 34.9166 72.6559 32.7968 72.6646 32.6832L72.6651 32.6751C72.6864 32.3649 72.9559 32.1307 73.2647 32.1508C73.5749 32.1711 73.8102 32.4385 73.7909 32.7487C73.7907 32.7514 73.7904 32.7556 73.79 32.7612L73.5695 35.9758C76.4361 34.1068 76.9019 31.1374 76.9066 31.1048C76.9366 30.8988 77.0776 30.7261 77.2735 30.6556L79.2992 29.9253C79.2991 24.4344 76.0578 20.0608 73.3026 17.3355C70.2095 14.2758 67.0299 12.5586 66.9981 12.5416C66.7235 12.3947 66.6198 12.0529 66.7666 11.7783C66.9134 11.5037 67.2548 11.3999 67.5296 11.5466C67.6643 11.6185 70.8651 13.3443 74.074 16.5118C75.9667 18.3801 77.4632 20.3622 78.5221 22.4031C79.8562 24.9746 80.4953 27.6446 80.4216 30.339C80.4153 30.571 80.2674 30.7754 80.0491 30.8542L77.9552 31.6091C77.7128 32.6488 76.7111 35.7718 73.1818 37.4886C73.0008 37.5767 72.7865 37.5615 72.6197 37.449C72.4528 37.3365 72.3586 37.1436 72.3723 36.9428L72.4257 36.1636C72.1671 36.4821 71.8598 36.7881 71.4948 37.0626C70.4847 37.822 69.2235 38.203 67.7282 38.2031Z" fill="#683A32"/>
<path d="M37.0942 41.7534C28.7937 39.7174 27.854 32.0433 27.854 32.0433L26.7577 32.983C24.4085 29.0677 25.3482 22.9597 25.3482 22.9597L24.252 21.8635C25.5048 14.6593 30.673 10.9006 30.673 10.9006H29.7333C31.7693 4.16619 38.8169 5.10588 38.8169 5.10588L37.9157 2.88541C41.6744 1.31927 46.6582 3.14291 46.6582 3.14291C46.6582 3.14291 48.9968 0.564087 49.9365 0.564087V2.44346C49.9365 2.44346 55.3064 0.877315 59.0652 2.44346L58.5502 4.79265C58.5502 4.79265 65.5978 3.85296 67.6338 10.5874H66.6941C66.6941 10.5874 71.8624 14.346 73.1153 21.5503L72.019 22.6466C72.019 22.6466 72.9587 28.7545 70.6095 32.6698L69.5133 31.7302C69.5133 31.7302 70.5478 39.4606 62.2473 41.4966" fill="white"/>
<path d="M25.3485 22.539L24.3179 21.5083C25.6752 14.5359 30.6734 10.9006 30.6734 10.9006H30.1578C30.4792 10.6213 30.6734 10.4798 30.6734 10.4798H29.8721C31.6229 5.48094 36.2634 5.03628 38.0764 5.06228C46.0884 7.57798 42.9736 17.0557 42.9736 17.0557L34.1456 27.9033C33.1535 30.8902 30.9795 34.0259 29.025 35.5208C28.0466 33.613 27.8543 32.0433 27.8543 32.0433L26.758 32.983C24.4089 29.0677 25.3485 22.9598 25.3485 22.9598L25.216 22.8272C25.3003 22.6412 25.3485 22.539 25.3485 22.539Z" fill="#AF8C70"/>
<path d="M62.4445 26.5814L49.1484 16.2726C49.1484 16.2726 47.5797 5.08183 58.5507 4.53638V4.79252C58.5507 4.79252 65.5983 3.85284 67.6343 10.5872H66.6946C66.6946 10.5872 71.8628 14.346 73.1158 21.5502L72.0195 22.6464C72.0195 22.6464 72.9592 28.7544 70.61 32.6697L69.5137 31.73C69.5136 31.7301 63.0748 32.3281 62.4445 26.5814Z" fill="#AF8C70"/>
<path d="M37.0948 42.3175C37.0503 42.3175 37.0051 42.3122 36.96 42.3012C32.4806 41.2025 30.0908 38.4965 28.8748 36.4199C28.1098 35.1135 27.7036 33.8985 27.4955 33.0937L27.125 33.4113C26.9988 33.5194 26.8314 33.5662 26.6676 33.5398C26.5036 33.5132 26.3597 33.4156 26.2742 33.2732C24.1153 29.6749 24.5927 24.4496 24.7519 23.161L23.8532 22.2623C23.7234 22.1325 23.6649 21.9476 23.6963 21.7668C24.3637 17.9293 26.1273 15.0615 27.4893 13.3315C28.1775 12.4572 28.8305 11.7803 29.3378 11.3024C29.3172 11.2822 29.2981 11.2602 29.2806 11.2368C29.1742 11.0934 29.142 10.9082 29.1936 10.7373C30.3177 7.01907 32.9043 5.53117 34.8762 4.93765C36.0908 4.57208 37.2136 4.49457 37.961 4.49649L37.3932 3.09748C37.2768 2.81071 37.4132 2.48372 37.6989 2.36464C41.0657 0.961796 45.2497 2.09648 46.494 2.49246C46.7353 2.2388 47.1254 1.84039 47.5636 1.43799C48.9516 0.16341 49.5609 0 49.9366 0C50.2481 0 50.5007 0.252535 50.5007 0.564071V1.71799C52.1323 1.3413 56.1773 0.629051 59.2822 1.92275C59.5341 2.02767 59.6747 2.29774 59.6163 2.56421L59.2611 4.18473C60.0042 4.1721 61.195 4.23437 62.4912 4.62448C64.4631 5.21794 67.0497 6.7059 68.1738 10.4241C68.2255 10.5949 68.1933 10.7802 68.0868 10.9236C68.0693 10.9471 68.0503 10.969 68.0297 10.9892C68.5369 11.4672 69.1899 12.1441 69.8782 13.0183C71.2401 14.7483 73.0037 17.6161 73.6711 21.4536C73.7026 21.6344 73.644 21.8193 73.5143 21.9491L72.6155 22.8479C72.7747 24.1365 73.2522 29.3618 71.0933 32.96C71.0077 33.1024 70.8639 33.2 70.6999 33.2266C70.536 33.2531 70.3685 33.2062 70.2425 33.0981L70.1099 32.9845C70.076 33.7872 69.9382 34.8772 69.5244 36.0391C68.7671 38.1652 66.9134 40.9328 62.3817 42.0444C62.0791 42.1186 61.7737 41.9335 61.6995 41.6309C61.6253 41.3284 61.8104 41.023 62.113 40.9487C65.3595 40.1524 67.4955 38.3732 68.4616 35.6606C69.1863 33.6257 68.9565 31.823 68.9541 31.805C68.923 31.5732 69.0383 31.3462 69.2439 31.2345C69.4495 31.1229 69.7026 31.1497 69.8803 31.3019L70.4467 31.7873C72.2522 28.0914 71.4701 22.7882 71.4614 22.7321C71.4343 22.5546 71.4932 22.3746 71.6201 22.2477L72.5073 21.3606C71.2229 14.6461 66.4115 11.0793 66.3624 11.0436C66.1648 10.8999 66.0822 10.6453 66.1577 10.4129C66.2333 10.1806 66.4499 10.0233 66.6942 10.0233H66.8421C65.9802 7.83117 64.4102 6.38015 62.166 5.70474C60.2879 5.13948 58.6413 5.3496 58.6249 5.35174C58.4427 5.37599 58.2598 5.30994 58.1352 5.17451C58.0106 5.03913 57.9599 4.85152 57.9993 4.67181L58.4099 2.79892C54.9027 1.60946 50.1442 2.97045 50.0945 2.98495C49.9242 3.03448 49.7402 3.00125 49.5981 2.8947C49.4561 2.78815 49.3725 2.62101 49.3725 2.44344V1.41407C49.123 1.58374 48.7771 1.8541 48.3093 2.28477C47.6416 2.89966 47.0817 3.51563 47.0762 3.52183C46.922 3.6919 46.6801 3.75158 46.4645 3.67261C46.4193 3.65614 42.0967 2.10884 38.6577 3.21329L39.3397 4.89377C39.4153 5.07997 39.3861 5.29234 39.2631 5.45124C39.14 5.61014 38.9416 5.69165 38.7425 5.66502C38.7266 5.66305 37.0451 5.45378 35.164 6.0293C32.9398 6.70985 31.3823 8.15726 30.5253 10.3365H30.6732C30.9175 10.3365 31.134 10.4938 31.2096 10.7262C31.2851 10.9585 31.2025 11.2131 31.0049 11.3568C30.9929 11.3655 29.7369 12.2924 28.3506 14.0612C27.1129 15.6406 25.5197 18.2287 24.8601 21.6738L25.7472 22.561C25.8742 22.6881 25.9332 22.868 25.9058 23.0456C25.8973 23.1014 25.1152 28.4045 26.9207 32.1006L27.4871 31.6151C27.6449 31.4799 27.8644 31.4423 28.0582 31.5176C28.252 31.5928 28.3888 31.7685 28.414 31.9748C28.4162 31.9924 28.6595 33.838 29.8717 35.8896C31.4816 38.6146 33.9569 40.4031 37.2287 41.2056C37.5312 41.2797 37.7164 41.5852 37.6421 41.8878C37.579 42.1452 37.3485 42.3175 37.0948 42.3175Z" fill="#683A32"/>
<path d="M34.4129 18.8947C34.2849 18.8947 34.1561 18.8513 34.0504 18.7625C33.8119 18.5622 33.7809 18.2063 33.9813 17.9678C35.5986 16.0423 37.4741 15.9255 38.7625 16.1663C40.1209 16.4203 41.0991 17.1167 41.1401 17.1462C41.3928 17.3283 41.4501 17.6808 41.2681 17.9336C41.0862 18.186 40.7343 18.2435 40.4816 18.0622C40.3476 17.9668 37.2579 15.8211 34.8451 18.6934C34.7336 18.8262 34.5738 18.8947 34.4129 18.8947Z" fill="#683A32"/>
<path d="M52.7523 17.2788C52.6242 17.2788 52.4955 17.2354 52.3898 17.1467C52.1512 16.9462 52.1203 16.5905 52.3206 16.3519C53.9381 14.4265 55.8134 14.3097 57.1018 14.5505C58.4603 14.8045 59.4385 15.5008 59.4794 15.5303C59.7322 15.7124 59.7895 16.0649 59.6074 16.3177C59.4256 16.5701 59.0738 16.6277 58.821 16.4464C58.687 16.351 55.5972 14.2053 53.1845 17.0776C53.073 17.2103 52.9132 17.2788 52.7523 17.2788Z" fill="#683A32"/>
<path d="M61.2126 29.8196L63.4052 29.6631C62.1523 25.1213 58.2369 21.8324 58.2369 21.8324L59.8031 21.2059C59.8031 21.2059 55.1047 15.5679 46.6476 15.5679C38.1905 15.5679 35.4497 24.4948 35.4497 24.4948L36.9376 25.1213C34.2751 25.7477 33.9619 32.6387 33.9619 32.6387" fill="white"/>
<path d="M33.9625 33.2026C33.9538 33.2026 33.9452 33.2025 33.9364 33.202C33.6252 33.1879 33.3844 32.9242 33.3985 32.613C33.4019 32.5406 33.4839 30.8186 33.9015 28.9892C34.3138 27.1831 34.9071 25.9158 35.6727 25.2005L35.2309 25.0146C34.9641 24.9022 34.8256 24.606 34.9106 24.3291C34.9398 24.2339 35.6469 21.9716 37.4327 19.6841C39.8231 16.6221 43.0096 15.0037 46.6476 15.0037C51.1512 15.0037 54.5988 16.5841 56.698 17.9099C58.9787 19.3503 60.1862 20.7844 60.2364 20.8447C60.352 20.9835 60.3942 21.1691 60.3499 21.3442C60.3056 21.5192 60.1802 21.6625 60.0126 21.7295L59.2763 22.0241C60.4861 23.2084 62.9725 25.9733 63.949 29.5129C63.9939 29.6759 63.9635 29.8504 63.8659 29.9884C63.7684 30.1265 63.614 30.2135 63.4454 30.2256L61.2528 30.3822C60.9425 30.405 60.6722 30.1705 60.65 29.8597C60.6277 29.549 60.8616 29.2791 61.1724 29.2568L62.6564 29.1509C61.2917 25.1766 57.9098 22.2941 57.8739 22.2639C57.7223 22.1362 57.6487 21.9383 57.6802 21.7426C57.7118 21.547 57.8435 21.3821 58.0275 21.3085L58.8193 20.9917C58.2784 20.466 57.3465 19.6494 56.0582 18.8401C54.0913 17.6046 50.862 16.1317 46.6476 16.1317C43.3347 16.1317 40.541 17.551 38.3441 20.3499C37.1454 21.8772 36.4567 23.4245 36.1615 24.1823L37.1565 24.6013C37.3816 24.696 37.5201 24.9249 37.4997 25.1683C37.4793 25.4117 37.3045 25.6142 37.0668 25.6702C36.2146 25.8707 35.481 27.1386 35.0013 29.2403C34.606 30.9719 34.5262 32.6474 34.5254 32.6641C34.5118 32.9667 34.2622 33.2026 33.9625 33.2026Z" fill="#683A32"/>
<path d="M52.352 18.1247C52.5791 20.3602 50.207 22.68 47.0231 23.0034C43.8392 23.3269 41.0491 21.5316 40.822 19.296C40.5949 17.0605 43.0915 15.9673 46.2754 15.6438C49.4593 15.3205 52.1248 15.8892 52.352 18.1247Z" fill="#683A32"/>
<path d="M41.1888 33.206C40.9321 33.206 40.7 33.0297 40.6397 32.769C40.6303 32.7283 40.4117 31.7598 40.6261 30.6448C40.8319 29.5741 41.4772 28.1664 43.3818 27.5409C45.2202 26.9373 45.8264 25.7987 46.2691 24.9673C46.564 24.4133 46.8426 23.8901 47.4192 23.7736C47.9956 23.657 48.4555 24.0311 48.9425 24.4271C49.6732 25.0214 50.6741 25.8352 52.6025 25.6777C54.6012 25.5143 55.7418 26.5611 56.3473 27.4679C56.9778 28.4122 57.1524 29.3895 57.1596 29.4307C57.2127 29.7376 57.007 30.0296 56.7 30.0828C56.3935 30.1356 56.102 29.9308 56.0482 29.6247C56.0255 29.4981 55.4696 26.5748 52.6944 26.8021C50.3138 26.9961 49.0099 25.936 48.2307 25.3024C48.0307 25.1397 47.7608 24.9203 47.6438 24.8849C47.5496 24.963 47.3861 25.2699 47.2649 25.4975C46.7929 26.384 46.003 27.8678 43.7339 28.6129C42.6232 28.9776 41.9503 29.7329 41.734 30.8579C41.5669 31.7269 41.7371 32.5072 41.7389 32.5148C41.8091 32.8183 41.62 33.1213 41.3164 33.1915C41.2737 33.2013 41.2309 33.206 41.1888 33.206Z" fill="#683A32"/>
<path d="M43.5581 28.0767C46.7409 27.0316 46.6419 24.506 47.5312 24.3263C48.4205 24.1466 49.3099 26.5125 52.6487 26.2397C53.4573 26.1736 54.1049 26.3335 54.6241 26.612C54.1383 27.6982 52.785 29.1182 49.1685 30.0677C45.313 31.0799 43.2045 29.9961 42.1191 28.9257C42.4713 28.5785 42.9381 28.2803 43.5581 28.0767Z" fill="#683A32"/>
<path d="M49.5897 33.6157C46.1327 34.0812 43.616 30.7044 44.3614 29.0308C45.1068 27.3571 48.6405 28.4296 48.6405 28.4296C48.6405 28.4296 50.0188 26.2356 52.2128 27.6139C54.4067 28.9922 52.0966 33.2783 49.5897 33.6157Z" fill="#F78C8B"/>
<path d="M48.9437 34.2234C46.7558 34.2234 45.1267 32.9149 44.3315 31.6903C43.6734 30.6768 43.4921 29.5968 43.8464 28.8012C44.1053 28.2199 44.7614 27.5271 46.4165 27.5271C47.2004 27.5271 47.9757 27.6807 48.4217 27.7881C48.8103 27.3353 49.6234 26.595 50.7873 26.595C51.3608 26.595 51.9414 26.7771 52.5131 27.1362C53.4639 27.7335 53.847 28.8238 53.5644 30.1275C53.186 31.8724 51.5877 33.9159 49.6654 34.1747C49.4255 34.207 49.1827 34.2234 48.9437 34.2234ZM46.4165 28.6552C45.8371 28.6552 45.0997 28.7602 44.877 29.2602C44.6817 29.6987 44.8353 30.3944 45.2777 31.0759C45.9116 32.0521 47.2075 33.0953 48.9437 33.0953C49.1326 33.0953 49.3248 33.0823 49.5149 33.0567C50.755 32.8897 52.132 31.4091 52.4618 29.8884C52.5883 29.3053 52.5956 28.5203 51.9131 28.0915C51.524 27.847 51.1452 27.7231 50.7873 27.7231C49.7791 27.7231 49.1247 28.7195 49.1184 28.7296C48.9832 28.945 48.7205 29.043 48.477 28.9693C48.467 28.9663 47.4246 28.6552 46.4165 28.6552Z" fill="#683A32"/>
<path d="M48.7145 31.1115C48.5204 31.1115 48.3317 31.0112 48.2271 30.8312C47.8545 30.1894 47.4361 28.8795 48.2314 28.0412C48.4458 27.8152 48.8028 27.8058 49.0289 28.0202C49.2548 28.2346 49.2642 28.5917 49.0498 28.8177C48.7062 29.1799 49.0546 30.0056 49.2037 30.2662C49.358 30.536 49.2655 30.8806 48.9962 31.0358C48.9072 31.0871 48.8102 31.1115 48.7145 31.1115Z" fill="#683A32"/>
<path d="M62.5715 43.9097C63.8467 42.114 61.7513 36.9981 61.7513 36.9981C61.7513 36.9981 55.8674 25.0001 63.3465 26.2C63.3465 26.2 63.2435 19.5342 68.2735 22.2594C68.2735 22.2594 73.3696 18.6502 74.5021 25.541C74.5021 25.541 78.426 25.051 78.5749 29.7076C78.7238 34.3642 77.2494 34.5823 78.4451 38.3598C78.914 39.8411 78.7792 40.4752 80.1699 43.8587" fill="white"/>
<path d="M62.5712 44.4738C62.4583 44.4738 62.3443 44.4399 62.2452 44.3695C61.9912 44.1891 61.9315 43.8371 62.1119 43.583C62.9075 42.4626 61.9997 39.0989 61.2365 37.2287C61.1364 37.0226 60.2976 35.2707 59.6704 33.1875C58.7563 30.1517 58.7616 27.9787 59.6861 26.7291C60.3346 25.8525 61.3822 25.4631 62.8069 25.5684C62.8881 24.4805 63.2354 22.3133 64.6972 21.4273C65.6414 20.855 66.8337 20.9165 68.2449 21.6096C68.9414 21.1968 70.7339 20.3152 72.39 21.0073C73.6748 21.5442 74.5414 22.8745 74.9697 24.9648C75.6067 24.9861 76.6954 25.1512 77.6119 25.9347C78.5717 26.7552 79.0854 28.0185 79.1389 29.6895C79.2042 31.7337 78.9624 32.9703 78.768 33.964C78.5099 35.2838 78.3393 36.1558 78.9831 38.1894C79.1371 38.6762 79.2279 39.0712 79.324 39.4893C79.5262 40.3689 79.7553 41.3659 80.6917 43.6441C80.8102 43.9322 80.6726 44.2618 80.3845 44.3802C80.0963 44.4988 79.7668 44.3611 79.6483 44.073C78.6765 41.7089 78.4364 40.664 78.2246 39.7421C78.1337 39.3467 78.0478 38.9733 77.9075 38.5299C77.1769 36.2218 77.3905 35.1299 77.6608 33.7475C77.8539 32.7608 78.0726 31.6424 78.0113 29.7255C77.9684 28.3849 77.5874 27.3979 76.8789 26.7922C75.8905 25.9473 74.5852 26.099 74.5722 26.1006C74.271 26.1385 73.9948 25.9314 73.9457 25.6324C73.6238 23.6739 72.9553 22.4686 71.9587 22.0499C70.4709 21.4245 68.6174 22.7073 68.5989 22.7203C68.4238 22.8433 68.1932 22.8573 68.0051 22.7553C66.8418 22.1251 65.9262 22.0027 65.2832 22.3913C64.1249 23.0918 63.8998 25.3722 63.9108 26.1918C63.9131 26.3583 63.8415 26.5176 63.7156 26.6265C63.5896 26.7354 63.4219 26.7833 63.2574 26.7569C61.9594 26.5488 61.0632 26.765 60.5933 27.3997C59.1539 29.3445 61.307 34.8085 62.2581 36.7498C62.2637 36.7611 62.2688 36.7726 62.2736 36.7842C62.2956 36.8381 62.8178 38.1202 63.1881 39.6476C63.7119 41.8086 63.6593 43.3525 63.0317 44.2362C62.9216 44.3911 62.7478 44.4738 62.5712 44.4738Z" fill="#683A32"/>
<path d="M66.5021 29.5515C66.5021 29.5515 66.8782 27.6205 68.2928 27.5589C69.7623 27.4949 69.809 28.4534 70.7958 29.3248C71.7827 30.1963 73.7614 31.0848 73.5638 32.8234C73.3661 34.562 71.799 34.5179 69.0814 34.4198C69.0814 34.4198 65.8279 34.461 65.3551 33.7025C64.8982 32.9697 64.6762 31.5731 65.2744 31.0707C65.8726 30.5683 66.4647 29.8196 66.5021 29.5515Z" fill="#F78C8B"/>
<path d="M76.7388 29.7392C77.0725 28.9973 76.7415 28.1253 75.9996 27.7916C75.2577 27.4579 74.3857 27.7888 74.052 28.5308C73.7183 29.2727 74.0492 30.1447 74.7911 30.4784C75.5331 30.8121 76.4051 30.4812 76.7388 29.7392Z" fill="#F78C8B"/>
<path d="M70.9312 26.0546C71.741 25.9769 72.3344 25.2575 72.2567 24.4477C72.1791 23.6379 71.4596 23.0445 70.6498 23.1221C69.8401 23.1998 69.2466 23.9193 69.3243 24.7291C69.402 25.5388 70.1214 26.1323 70.9312 26.0546Z" fill="#F78C8B"/>
<path d="M67.7211 25.5469C67.9684 24.7718 67.5405 23.9431 66.7654 23.6959C65.9904 23.4487 65.1617 23.8766 64.9144 24.6516C64.6672 25.4266 65.0951 26.2554 65.8701 26.5026C66.6452 26.7498 67.4739 26.3219 67.7211 25.5469Z" fill="#F78C8B"/>
<path d="M63.0765 30.6239C63.8736 30.4617 64.3884 29.6841 64.2263 28.8869C64.0642 28.0897 63.2865 27.5749 62.4893 27.7371C61.6921 27.8992 61.1773 28.6769 61.3395 29.474C61.5016 30.2712 62.2793 30.786 63.0765 30.6239Z" fill="#F78C8B"/>
<path d="M93.4158 43.3899H66.9829H22.0101H0.676885C0.302906 43.3899 0 43.6928 0 44.0668C0 44.4408 0.302906 44.7437 0.676885 44.7437H24.8H63.185H93.4158C93.7898 44.7437 94.0927 44.4408 94.0927 44.0668C94.0927 43.6928 93.7898 43.3899 93.4158 43.3899Z" fill="#683A32"/>
<path d="M30.3881 38.8335C35.4722 46.8209 29.4338 48.6065 29.4338 48.6065C28.0892 53.353 23.4444 51.1952 23.4444 51.1952C19.533 52.7949 17.5773 48.5927 17.5773 48.5927C12.9325 48.7564 13.4422 42.0167 15.115 39.2565C16.9346 36.2541 26.6613 32.9784 30.3881 38.8335Z" fill="white"/>
<path d="M25.7468 52.2486C24.7324 52.2487 23.8427 51.9585 23.4377 51.8026C22.8551 52.0149 22.2778 52.1224 21.7184 52.1225C21.7182 52.1225 21.718 52.1225 21.7178 52.1225C19.1838 52.1225 17.7162 49.9919 17.2383 49.1566C15.8409 49.107 14.7533 48.4587 14.086 47.2739C12.8116 45.0114 13.3514 41.0787 14.6328 38.9642C15.2299 37.979 16.5461 36.9848 18.2439 36.2365C20.0178 35.4545 22.0012 35.0239 23.8288 35.0239C25.2769 35.0239 26.5908 35.2876 27.734 35.8076C29.0387 36.4012 30.0919 37.3173 30.8642 38.5306C32.8254 41.6119 33.4341 44.2048 32.6731 46.2373C32.0153 47.9945 30.5305 48.7753 29.8921 49.0386C29.5273 50.1573 28.9462 50.9985 28.1626 51.5415C27.4853 52.0106 26.6725 52.2486 25.7468 52.2486ZM23.4446 50.6311C23.5259 50.6311 23.607 50.6487 23.6823 50.6837C23.6908 50.6875 24.6461 51.1205 25.7467 51.1205C27.3319 51.1204 28.3899 50.2229 28.8913 48.4528C28.9441 48.2666 29.0886 48.1204 29.2741 48.0656C29.2891 48.061 30.9948 47.5239 31.6217 45.828C32.2434 44.1464 31.6684 41.8949 29.9125 39.1363C28.3425 36.6697 25.7375 36.152 23.8288 36.152C20.2961 36.152 16.5694 37.9454 15.5976 39.5489C15.0609 40.4345 14.6617 41.7574 14.5297 43.0876C14.3842 44.5545 14.5758 45.8446 15.069 46.7202C15.5879 47.6414 16.3991 48.0704 17.5577 48.0289C17.7837 48.0224 17.9934 48.1493 18.089 48.3547C18.1009 48.38 19.3583 50.9943 21.7179 50.9943C21.718 50.9943 21.7181 50.9943 21.7183 50.9943C22.201 50.9943 22.7101 50.8862 23.2311 50.6731C23.2996 50.645 23.3722 50.6311 23.4446 50.6311Z" fill="#683A32"/>
<path d="M17.5771 48.5928C17.5771 48.5928 18.684 47.1788 18.525 46.5426Z" fill="white"/>
<path d="M17.5769 49.1568C17.4553 49.1568 17.3328 49.1177 17.2296 49.0369C16.9843 48.8448 16.9411 48.4903 17.1331 48.245C17.5989 47.6485 17.9997 46.9018 17.9767 46.6741C17.9044 46.3736 18.0879 46.0704 18.3884 45.9953C18.6907 45.9195 18.9969 46.1036 19.0724 46.4057C19.1785 46.8305 19.0272 47.367 18.596 48.094C18.3237 48.553 18.0337 48.9248 18.0214 48.9404C17.9102 49.0825 17.7444 49.1568 17.5769 49.1568Z" fill="#683A32"/>
<path d="M23.4443 51.1952C23.4443 51.1952 23.5126 49.1318 23.4443 48.5927Z" fill="white"/>
<path d="M23.4448 51.7593C23.4385 51.7593 23.4322 51.7592 23.4258 51.759C23.1145 51.7487 22.8704 51.488 22.8807 51.1767C22.9065 50.3962 22.9305 49.0238 22.8849 48.6636C22.8458 48.3546 23.0646 48.0723 23.3737 48.0331C23.6832 47.9943 23.965 48.2129 24.0041 48.5219C24.0759 49.0893 24.0154 50.9981 24.0083 51.2139C23.9981 51.5189 23.7476 51.7593 23.4448 51.7593Z" fill="#683A32"/>
<path d="M29.434 48.6066C29.434 48.6066 28.7372 47.0198 28.2437 46.5426Z" fill="white"/>
<path d="M29.4343 49.1708C29.2173 49.1708 29.0105 49.0448 28.9176 48.8335C28.6463 48.2163 28.1363 47.2234 27.8517 46.9481C27.6277 46.7315 27.6217 46.3745 27.8382 46.1505C28.0548 45.9266 28.4118 45.9205 28.6358 46.1371C29.1815 46.6646 29.8267 48.0979 29.9505 48.3798C30.0757 48.6651 29.9461 48.9977 29.6609 49.123C29.5871 49.1554 29.5101 49.1708 29.4343 49.1708Z" fill="#683A32"/>
<path d="M86.12 39.54C86.1067 39.6867 86.06 39.8267 85.98 39.96C85.9133 40.08 85.8067 40.1333 85.66 40.12C85.4333 40.1067 85.2333 40.02 85.06 39.86C84.9 39.7 84.82 39.5667 84.82 39.46C84.8333 38.3 84.7933 37.12 84.7 35.92C84.62 34.7067 84.4867 33.5 84.3 32.3C84.3 32.2467 84.3133 32.1867 84.34 32.12C84.3667 32.0667 84.4 32.0067 84.44 31.94C84.48 31.86 84.5467 31.7867 84.64 31.72C84.7333 31.68 84.8333 31.6867 84.94 31.74C85.06 31.7933 85.1733 31.8733 85.28 31.98C85.3867 32.0867 85.48 32.2067 85.56 32.34C85.64 32.4733 85.7 32.6 85.74 32.72C85.78 32.9867 85.82 33.28 85.86 33.6C85.9 33.92 85.9333 34.2533 85.96 34.6C86.28 34.4267 86.5867 34.2333 86.88 34.02C87.1733 33.8067 87.4267 33.5733 87.64 33.32C87.8667 33.0667 88.04 32.8067 88.16 32.54C88.28 32.26 88.32 31.9733 88.28 31.68C88.2533 31.4533 88.1533 31.2467 87.98 31.06C87.8067 30.8733 87.54 30.7333 87.18 30.64C86.3533 30.4533 85.6133 30.4467 84.96 30.62C84.3067 30.78 83.68 31.0533 83.08 31.44C82.9067 31.5733 82.7467 31.6533 82.6 31.68C82.4533 31.7067 82.3267 31.7 82.22 31.66C82.1133 31.62 82.0333 31.56 81.98 31.48C81.9267 31.4 81.9 31.32 81.9 31.24C81.9267 30.9333 82.0733 30.66 82.34 30.42C82.62 30.1667 82.9133 29.9533 83.22 29.78C83.62 29.58 84.1133 29.4133 84.7 29.28C85.2867 29.1467 85.8733 29.1 86.46 29.14C87.06 29.1667 87.62 29.3067 88.14 29.56C88.66 29.8133 89.06 30.22 89.34 30.78C89.5933 31.4467 89.6467 32.0467 89.5 32.58C89.3667 33.1133 89.12 33.6 88.76 34.04C88.4 34.48 87.9733 34.8867 87.48 35.26C86.9867 35.62 86.52 35.9533 86.08 36.26C86.1067 36.8467 86.12 37.42 86.12 37.98C86.1333 38.54 86.1333 39.06 86.12 39.54ZM98.785 34.54C98.8383 34.6733 98.785 34.8067 98.625 34.94C98.465 35.06 98.2117 35.14 97.865 35.18C97.265 35.26 96.6517 35.3467 96.025 35.44C95.3983 35.52 94.7583 35.6067 94.105 35.7C94.0783 36.38 94.0783 37.06 94.105 37.74C94.4117 37.74 94.7783 37.7133 95.205 37.66C95.645 37.5933 96.0917 37.5133 96.545 37.42C96.9983 37.3267 97.4317 37.2333 97.845 37.14C98.2717 37.0333 98.6317 36.9467 98.925 36.88C99.0717 36.84 99.225 36.8133 99.385 36.8C99.545 36.7733 99.685 36.7733 99.805 36.8C99.9383 36.8133 100.045 36.86 100.125 36.94C100.205 37.02 100.245 37.1333 100.245 37.28C100.245 37.32 100.198 37.38 100.105 37.46C100.012 37.54 99.8917 37.6267 99.745 37.72C99.6117 37.8 99.465 37.88 99.305 37.96C99.1583 38.0267 99.025 38.08 98.905 38.12C98.0783 38.3867 97.265 38.62 96.465 38.82C95.665 39.0067 94.885 39.1067 94.125 39.12C93.685 39.1333 93.3517 39.02 93.125 38.78C92.8983 38.5267 92.7783 38.1667 92.765 37.7C92.7383 37.0467 92.7383 36.3867 92.765 35.72C92.5383 35.5867 92.425 35.4 92.425 35.16C92.4517 34.9067 92.5717 34.7333 92.785 34.64C92.8117 34.2533 92.8317 33.8667 92.845 33.48C92.8583 33.08 92.8783 32.6867 92.905 32.3C92.7583 32.2733 92.625 32.2 92.505 32.08C92.3983 31.96 92.345 31.8267 92.345 31.68C92.345 31.56 92.3717 31.4533 92.425 31.36C92.4783 31.2533 92.5783 31.1733 92.725 31.12C92.965 31.0667 93.2583 31.0067 93.605 30.94C93.9517 30.8733 94.305 30.8133 94.665 30.76C95.0383 30.7067 95.3917 30.66 95.725 30.62C96.0717 30.58 96.365 30.5533 96.605 30.54C96.885 30.5133 97.1517 30.54 97.405 30.62C97.6717 30.7 97.9183 30.8533 98.145 31.08C98.1983 31.2667 98.1583 31.4067 98.025 31.5C97.905 31.5933 97.745 31.6533 97.545 31.68C97.345 31.7067 97.105 31.74 96.825 31.78C96.545 31.8067 96.2517 31.84 95.945 31.88C95.6517 31.92 95.3517 31.96 95.045 32C94.7517 32.0267 94.4717 32.06 94.205 32.1C94.205 32.1267 94.205 32.16 94.205 32.2C94.2183 32.2267 94.225 32.2533 94.225 32.28C94.1983 32.6267 94.1783 32.9733 94.165 33.32C94.1517 33.6667 94.1383 34.0133 94.125 34.36C94.685 34.2667 95.2583 34.1867 95.845 34.12C96.4317 34.04 96.8983 33.9867 97.245 33.96C97.525 33.9333 97.7983 33.9667 98.065 34.06C98.3317 34.1533 98.5717 34.3133 98.785 34.54ZM111.368 31.54C109.995 31.4733 108.675 31.58 107.408 31.86C106.141 32.14 104.888 32.52 103.648 33C103.328 33.12 103.081 33.1067 102.908 32.96C102.748 32.8133 102.668 32.6667 102.668 32.52C102.761 32.2667 102.928 32.06 103.168 31.9C105.901 30.5667 108.635 30.0733 111.368 30.42C111.501 30.46 111.608 30.56 111.688 30.72C111.781 30.8667 111.815 30.9933 111.788 31.1C111.761 31.2333 111.721 31.3467 111.668 31.44C111.615 31.52 111.515 31.5533 111.368 31.54ZM108.528 38.52C108.528 38.6667 108.475 38.8 108.368 38.92C108.275 39.0267 108.155 39.0933 108.008 39.12C107.741 39.16 107.568 39.1133 107.488 38.98C107.408 38.8467 107.361 38.6933 107.348 38.52C107.335 37.5867 107.315 36.66 107.288 35.74C107.275 34.8067 107.235 33.8733 107.168 32.94C107.168 32.8867 107.161 32.8267 107.148 32.76C107.135 32.68 107.135 32.6067 107.148 32.54C107.161 32.46 107.188 32.3933 107.228 32.34C107.281 32.2867 107.361 32.2467 107.468 32.22C107.775 32.1667 107.995 32.22 108.128 32.38C108.261 32.5267 108.328 32.6733 108.328 32.82C108.435 33.78 108.501 34.7333 108.528 35.68C108.555 36.6267 108.555 37.5733 108.528 38.52ZM116.571 39.18C116.638 39.66 116.438 39.9333 115.971 40C115.731 40.0267 115.531 39.96 115.371 39.8C115.225 39.64 115.131 39.4467 115.091 39.22C115.051 38.98 115.065 38.7467 115.131 38.52C115.211 38.2933 115.358 38.1667 115.571 38.14C115.838 38.1 116.065 38.2 116.251 38.44C116.438 38.6667 116.545 38.9133 116.571 39.18ZM128.676 31.32C128.582 32.4533 128.469 33.6133 128.336 34.8C128.216 35.9733 128.049 37.08 127.836 38.12C127.782 38.3733 127.709 38.5533 127.616 38.66C127.522 38.7667 127.389 38.84 127.216 38.88C127.069 38.9067 126.862 38.86 126.596 38.74C126.342 38.62 126.129 38.4467 125.956 38.22C125.729 37.9133 125.482 37.58 125.216 37.22C124.962 36.8467 124.682 36.4733 124.376 36.1C124.082 35.7133 123.769 35.3333 123.436 34.96C123.116 34.5867 122.776 34.24 122.416 33.92C122.376 34.8 122.342 35.6733 122.316 36.54C122.289 37.3933 122.289 38.2533 122.316 39.12C122.316 39.24 122.209 39.3 121.996 39.3C121.742 39.3 121.536 39.1733 121.376 38.92C121.216 38.6533 121.122 38.3867 121.096 38.12C121.056 37.8533 121.036 37.4733 121.036 36.98C121.036 36.4733 121.042 35.9467 121.056 35.4C121.082 34.8533 121.109 34.3267 121.136 33.82C121.162 33.3133 121.189 32.9133 121.216 32.62C121.242 32.3 121.316 32.0667 121.436 31.92C121.569 31.7733 121.696 31.7067 121.816 31.72C122.082 31.7467 122.256 31.8267 122.336 31.96C122.429 32.08 122.482 32.2333 122.496 32.42C122.976 32.7667 123.416 33.14 123.816 33.54C124.229 33.94 124.602 34.3467 124.936 34.76C125.282 35.1733 125.596 35.5867 125.876 36C126.169 36.4 126.442 36.7667 126.696 37.1C126.856 36.3 126.982 35.4067 127.076 34.42C127.182 33.4333 127.289 32.4 127.396 31.32C127.382 31.1867 127.462 31.06 127.636 30.94C127.809 30.8067 127.969 30.7467 128.116 30.76C128.489 30.7867 128.676 30.9733 128.676 31.32ZM138.055 34.54C138.108 34.6733 138.055 34.8067 137.895 34.94C137.735 35.06 137.481 35.14 137.135 35.18C136.535 35.26 135.921 35.3467 135.295 35.44C134.668 35.52 134.028 35.6067 133.375 35.7C133.348 36.38 133.348 37.06 133.375 37.74C133.681 37.74 134.048 37.7133 134.475 37.66C134.915 37.5933 135.361 37.5133 135.815 37.42C136.268 37.3267 136.701 37.2333 137.115 37.14C137.541 37.0333 137.901 36.9467 138.195 36.88C138.341 36.84 138.495 36.8133 138.655 36.8C138.815 36.7733 138.955 36.7733 139.075 36.8C139.208 36.8133 139.315 36.86 139.395 36.94C139.475 37.02 139.515 37.1333 139.515 37.28C139.515 37.32 139.468 37.38 139.375 37.46C139.281 37.54 139.161 37.6267 139.015 37.72C138.881 37.8 138.735 37.88 138.575 37.96C138.428 38.0267 138.295 38.08 138.175 38.12C137.348 38.3867 136.535 38.62 135.735 38.82C134.935 39.0067 134.155 39.1067 133.395 39.12C132.955 39.1333 132.621 39.02 132.395 38.78C132.168 38.5267 132.048 38.1667 132.035 37.7C132.008 37.0467 132.008 36.3867 132.035 35.72C131.808 35.5867 131.695 35.4 131.695 35.16C131.721 34.9067 131.841 34.7333 132.055 34.64C132.081 34.2533 132.101 33.8667 132.115 33.48C132.128 33.08 132.148 32.6867 132.175 32.3C132.028 32.2733 131.895 32.2 131.775 32.08C131.668 31.96 131.615 31.8267 131.615 31.68C131.615 31.56 131.641 31.4533 131.695 31.36C131.748 31.2533 131.848 31.1733 131.995 31.12C132.235 31.0667 132.528 31.0067 132.875 30.94C133.221 30.8733 133.575 30.8133 133.935 30.76C134.308 30.7067 134.661 30.66 134.995 30.62C135.341 30.58 135.635 30.5533 135.875 30.54C136.155 30.5133 136.421 30.54 136.675 30.62C136.941 30.7 137.188 30.8533 137.415 31.08C137.468 31.2667 137.428 31.4067 137.295 31.5C137.175 31.5933 137.015 31.6533 136.815 31.68C136.615 31.7067 136.375 31.74 136.095 31.78C135.815 31.8067 135.521 31.84 135.215 31.88C134.921 31.92 134.621 31.96 134.315 32C134.021 32.0267 133.741 32.06 133.475 32.1C133.475 32.1267 133.475 32.16 133.475 32.2C133.488 32.2267 133.495 32.2533 133.495 32.28C133.468 32.6267 133.448 32.9733 133.435 33.32C133.421 33.6667 133.408 34.0133 133.395 34.36C133.955 34.2667 134.528 34.1867 135.115 34.12C135.701 34.04 136.168 33.9867 136.515 33.96C136.795 33.9333 137.068 33.9667 137.335 34.06C137.601 34.1533 137.841 34.3133 138.055 34.54ZM153.938 31.78C153.551 32.78 153.098 33.8267 152.578 34.92C152.071 36 151.464 37.0733 150.758 38.14C150.558 38.4467 150.331 38.6 150.078 38.6C149.918 38.6 149.784 38.5667 149.678 38.5C149.571 38.42 149.478 38.32 149.398 38.2C149.051 37.6667 148.738 37.1 148.458 36.5C148.178 35.9 147.904 35.22 147.638 34.46C147.251 35.14 146.818 35.8267 146.338 36.52C145.871 37.2133 145.358 37.86 144.798 38.46C144.691 38.58 144.578 38.66 144.458 38.7C144.351 38.74 144.264 38.7533 144.198 38.74C143.918 38.7 143.698 38.5267 143.538 38.22C143.044 37.3 142.711 36.2867 142.538 35.18C142.364 34.0733 142.271 32.94 142.258 31.78C142.258 31.6733 142.298 31.5667 142.378 31.46C142.458 31.3533 142.578 31.3067 142.738 31.32C142.978 31.3333 143.164 31.4267 143.298 31.6C143.431 31.76 143.511 31.96 143.538 32.2C143.564 32.5333 143.598 32.9133 143.638 33.34C143.678 33.7533 143.731 34.18 143.798 34.62C143.864 35.06 143.951 35.4867 144.058 35.9C144.164 36.3133 144.298 36.6733 144.458 36.98C144.658 36.7267 144.871 36.4467 145.098 36.14C145.324 35.8333 145.544 35.5133 145.758 35.18C145.984 34.8467 146.198 34.5133 146.398 34.18C146.598 33.8333 146.778 33.4933 146.938 33.16C147.044 32.9333 147.178 32.7867 147.338 32.72C147.498 32.6533 147.624 32.62 147.718 32.62C148.118 32.62 148.391 32.8133 148.538 33.2C148.764 33.76 148.991 34.3533 149.218 34.98C149.458 35.6067 149.718 36.2 149.998 36.76C150.238 36.3867 150.484 35.9667 150.738 35.5C150.991 35.0333 151.238 34.56 151.478 34.08C151.718 33.5867 151.944 33.0933 152.158 32.6C152.384 32.1067 152.584 31.64 152.758 31.2C152.824 31.04 152.938 30.9067 153.098 30.8C153.258 30.6933 153.431 30.7 153.618 30.82C153.764 30.9133 153.864 31.0667 153.918 31.28C153.984 31.48 153.991 31.6467 153.938 31.78ZM162.587 30.98C162.534 31.0467 162.434 31.1 162.287 31.14C162.154 31.1667 162.014 31.1267 161.867 31.02C161.761 30.94 161.634 30.86 161.487 30.78C161.341 30.6867 161.181 30.6 161.007 30.52C160.834 30.44 160.661 30.3733 160.487 30.32C160.314 30.2667 160.147 30.24 159.987 30.24C159.787 30.24 159.574 30.2867 159.347 30.38C159.134 30.4733 158.947 30.6067 158.787 30.78C158.481 31.1133 158.367 31.44 158.447 31.76C158.541 32.0667 158.774 32.3533 159.147 32.62C159.387 32.7933 159.647 32.9733 159.927 33.16C160.207 33.3333 160.481 33.5067 160.747 33.68C161.027 33.8533 161.287 34.02 161.527 34.18C161.781 34.34 162.001 34.48 162.187 34.6C162.427 34.76 162.654 34.9333 162.867 35.12C163.081 35.3067 163.267 35.52 163.427 35.76C163.587 35.9867 163.714 36.2467 163.807 36.54C163.901 36.8333 163.947 37.1667 163.947 37.54C163.854 38.2733 163.561 38.86 163.067 39.3C162.587 39.7267 162.027 40 161.387 40.12C160.827 40.2267 160.274 40.2067 159.727 40.06C159.194 39.9133 158.741 39.6333 158.367 39.22C158.274 39.1133 158.194 38.9667 158.127 38.78C158.061 38.5933 158.054 38.46 158.107 38.38C158.187 38.26 158.327 38.18 158.527 38.14C158.727 38.0867 158.881 38.0933 158.987 38.16C159.294 38.44 159.654 38.6467 160.067 38.78C160.481 38.9 160.914 38.9067 161.367 38.8C161.714 38.72 161.994 38.5733 162.207 38.36C162.421 38.1333 162.554 37.88 162.607 37.6C162.674 37.3067 162.634 37.0067 162.487 36.7C162.354 36.38 162.107 36.0933 161.747 35.84C161.201 35.4267 160.614 35.04 159.987 34.68C159.374 34.32 158.747 33.9067 158.107 33.44C157.801 33.1733 157.574 32.88 157.427 32.56C157.294 32.24 157.227 31.9267 157.227 31.62C157.227 31.3 157.294 31 157.427 30.72C157.561 30.4267 157.747 30.1667 157.987 29.94C158.227 29.7 158.507 29.5067 158.827 29.36C159.147 29.2133 159.501 29.1267 159.887 29.1C160.421 29.0733 160.934 29.1867 161.427 29.44C161.921 29.68 162.321 29.98 162.627 30.34C162.694 30.42 162.721 30.52 162.707 30.64C162.707 30.76 162.667 30.8733 162.587 30.98Z" fill="#0B0B0B" fill-opacity="0.68"/>
</svg>
