<?xml version="1.0" encoding="utf-8"?>
<!-- Generator: Adobe Illustrator 27.5.0, SVG Export Plug-In . SVG Version: 6.00 Build 0)  -->
<svg version="1.1" id="Layer_1" xmlns="http://www.w3.org/2000/svg" xmlns:xlink="http://www.w3.org/1999/xlink" x="0px" y="0px"
	 viewBox="0 0 2000 2000" style="enable-background:new 0 0 2000 2000;" xml:space="preserve">
<rect style="fill:#FFFFFF;" width="2000" height="2000"/>
<g>
	<g>
		<path style="fill:#AF8C70;" d="M631.988,884.331c0,0-163.634,215.177-97.177,360.942h45.096c0,0,32.645,61.083,110.387,69.412
			l-30.541-69.412c0,0,44.424,102.73,158.259,30.541"/>
		<path style="fill:#683A32;" d="M690.295,1324.686c-0.354,0-0.71-0.019-1.067-0.057c-69.182-7.413-104.665-53.474-114.958-69.355
			h-39.46c-3.917,0-7.474-2.287-9.099-5.852c-15.971-35.031-20.563-76.582-13.647-123.499c5.44-36.904,17.99-77.246,37.303-119.907
			c32.692-72.214,72.962-125.504,74.66-127.738c3.343-4.396,9.617-5.25,14.013-1.907c4.395,3.343,5.249,9.615,1.908,14.011v0
			c-0.404,0.532-40.775,53.995-72.517,124.225c-28.018,61.995-54.769,149.839-26.041,220.666h38.516c3.69,0,7.08,2.032,8.819,5.286
			c0.065,0.119,7.912,14.431,24.541,29.435c17.554,15.839,37.813,26.48,60.413,31.763l-23.021-52.322
			c-0.038-0.086-0.066-0.15-0.085-0.192c-2.187-5.058,0.13-10.932,5.181-13.135c5.052-2.202,10.932,0.096,13.151,5.139l0.039,0.089
			c0.549,1.218,16.659,36.231,51.933,46.989c26.315,8.025,57.196,0.975,91.779-20.955c4.663-2.955,10.843-1.574,13.801,3.09
			c2.958,4.664,1.574,10.843-3.09,13.801c-39.833,25.26-76.357,33.04-108.565,23.121c-7.738-2.384-14.703-5.638-20.932-9.396
			l5.576,12.674c1.437,3.267,1.025,7.051-1.082,9.931C696.47,1323.18,693.463,1324.686,690.295,1324.686z"/>
		<path style="fill:#AF8C70;" d="M1358.418,771.333c0,0,228.791,122.165,223.266,324.061l-42.423,15.295
			c0,0-9.994,68.534-80.303,102.736l5.19-75.656c0,0-6.949,111.708-138.521,82.405"/>
		<path style="fill:#683A32;" d="M1366.648,1235.086c-13.358,0-27.77-1.716-43.196-5.151c-5.391-1.2-8.787-6.544-7.587-11.935
			c1.2-5.392,6.547-8.785,11.935-7.587c40.066,8.922,71.56,5.042,93.604-11.532c29.332-22.058,32.604-59.638,32.757-61.652
			l0.01-0.145c0.377-5.498,5.154-9.651,10.629-9.294c5.499,0.359,9.671,5.1,9.328,10.6c-0.003,0.048-0.008,0.122-0.015,0.222
			l-3.909,56.989c50.819-33.135,59.077-85.777,59.161-86.355c0.532-3.651,3.032-6.713,6.504-7.964l35.912-12.947
			c-0.002-97.343-57.464-174.879-106.309-223.195c-54.835-54.242-111.204-84.686-111.768-84.987
			c-4.868-2.604-6.706-8.663-4.104-13.532c2.602-4.869,8.655-6.709,13.527-4.108c2.388,1.275,59.133,31.871,116.02,88.024
			c33.555,33.122,60.086,68.261,78.858,104.444c23.651,45.587,34.981,92.921,33.674,140.688c-0.112,4.113-2.733,7.738-6.604,9.134
			l-37.121,13.384c-4.296,18.431-22.056,73.797-84.623,104.232c-3.209,1.563-7.008,1.294-9.965-0.701
			c-2.959-1.995-4.63-5.415-4.386-8.975l0.947-13.814c-4.585,5.648-10.033,11.072-16.505,15.939
			C1415.516,1228.331,1393.156,1235.085,1366.648,1235.086z"/>
		<path style="fill:#FFFFFF;" d="M823.565,1298.026c-147.153-36.094-163.812-172.142-163.812-172.142l-19.435,16.659
			c-41.647-69.412-24.988-177.695-24.988-177.695l-19.435-19.435C618.106,817.696,709.729,751.06,709.729,751.06h-16.659
			c36.094-119.389,161.036-102.73,161.036-102.73l-15.976-39.365c66.635-27.765,154.989,4.565,154.989,4.565
			s41.459-45.718,58.118-45.718v33.318c0,0,95.2-27.765,161.836,0l-9.129,41.647c0,0,124.941-16.659,161.036,102.73h-16.659
			c0,0,91.624,66.635,113.836,194.354l-19.435,19.435c0,0,16.659,108.283-24.988,177.695l-19.435-16.659
			c0,0,18.341,137.047-128.812,173.142"/>
		<path style="fill:#AF8C70;" d="M615.329,957.389l-18.272-18.272C621.12,815.508,709.729,751.06,709.729,751.06h-9.14
			c5.697-4.952,9.14-7.46,9.14-7.46h-14.206c31.04-88.621,113.307-96.504,145.448-96.043
			c142.039,44.599,86.819,212.623,86.819,212.623l-156.505,192.309c-17.588,52.952-56.129,108.542-90.779,135.045
			c-17.345-33.822-20.754-61.65-20.754-61.65l-19.435,16.659c-41.647-69.412-24.988-177.695-24.988-177.695l-2.35-2.35
			C614.473,959.2,615.329,957.389,615.329,957.389z"/>
		<path style="fill:#AF8C70;" d="M1272.973,1029.055l-235.717-182.758c0,0-27.809-198.392,166.687-208.062v4.541
			c0,0,124.941-16.659,161.036,102.73h-16.659c0,0,91.624,66.636,113.836,194.354l-19.435,19.435c0,0,16.659,108.283-24.988,177.695
			l-19.435-16.659C1398.296,1120.332,1284.148,1130.934,1272.973,1029.055z"/>
		<path style="fill:#683A32;" d="M823.573,1308.028c-0.789,0-1.59-0.094-2.39-0.29c-79.411-19.478-121.778-67.45-143.335-104.265
			c-13.562-23.16-20.764-44.699-24.453-58.968l-6.569,5.631c-2.236,1.917-5.204,2.747-8.109,2.278
			c-2.907-0.472-5.458-2.201-6.974-4.727c-38.274-63.791-29.81-156.426-26.987-179.271l-15.933-15.933
			c-2.301-2.301-3.338-5.578-2.781-8.784c11.831-68.031,43.097-118.872,67.242-149.543c12.201-15.499,23.778-27.499,32.771-35.972
			c-0.364-0.359-0.703-0.748-1.013-1.164c-1.886-2.542-2.458-5.825-1.543-8.855c19.928-65.917,65.784-92.295,100.743-102.817
			c21.532-6.481,41.437-7.855,54.688-7.821l-10.066-24.802c-2.063-5.084,0.355-10.881,5.42-12.992
			c59.687-24.87,133.861-4.754,155.921,2.266c4.277-4.497,11.194-11.56,18.962-18.694c24.607-22.596,35.408-25.493,42.069-25.493
			c5.522,0,10,4.477,10,10v20.457c28.926-6.678,100.637-19.305,155.682,3.63c4.465,1.86,6.958,6.648,5.922,11.372L1216.543,632
			c13.174-0.224,34.285,0.88,57.264,7.796c34.959,10.521,80.815,36.9,100.744,102.817c0.916,3.029,0.344,6.314-1.543,8.855
			c-0.31,0.417-0.648,0.806-1.013,1.164c8.992,8.474,20.569,20.473,32.771,35.971c24.145,30.671,55.41,81.512,67.242,149.544
			c0.558,3.206-0.48,6.483-2.781,8.785l-15.934,15.933c2.823,22.845,11.288,115.48-26.986,179.271
			c-1.516,2.524-4.066,4.254-6.974,4.726c-2.905,0.469-5.874-0.362-8.109-2.278l-2.35-2.014
			c-0.602,14.231-3.045,33.554-10.381,54.153c-13.424,37.691-46.288,86.757-126.627,106.463c-5.365,1.316-10.778-1.966-12.094-7.33
			c-1.315-5.363,1.966-10.778,7.33-12.094c57.556-14.118,95.423-45.66,112.55-93.749c12.848-36.075,8.774-68.035,8.732-68.354
			c-0.551-4.11,1.493-8.134,5.138-10.113c3.644-1.98,8.132-1.504,11.281,1.194l10.041,8.606
			c32.009-65.523,18.143-159.539,17.99-160.534c-0.48-3.146,0.563-6.337,2.813-8.587l15.728-15.727
			c-22.77-119.036-108.067-182.27-108.938-182.903c-3.503-2.547-4.968-7.061-3.628-11.18c1.34-4.119,5.179-6.908,9.51-6.908h2.623
			c-15.281-38.862-43.114-64.586-82.899-76.56c-33.296-10.021-62.488-6.296-62.779-6.258c-3.23,0.43-6.472-0.741-8.681-3.142
			c-2.208-2.4-3.107-5.726-2.409-8.912l7.279-33.203c-62.177-21.087-146.536,3.041-147.417,3.298c-3.019,0.878-6.281,0.289-8.8-1.6
			c-2.518-1.889-4-4.852-4-8v-18.249c-4.424,3.008-10.556,7.801-18.848,15.436c-11.838,10.901-21.764,21.821-21.862,21.931
			c-2.734,3.015-7.022,4.073-10.844,2.673c-0.802-0.292-77.434-27.723-138.401-8.143l12.091,29.792
			c1.34,3.301,0.822,7.066-1.359,9.883c-2.182,2.817-5.698,4.262-9.229,3.79c-0.281-0.035-30.092-3.745-63.441,6.458
			c-39.43,12.065-67.042,37.725-82.236,76.359h2.622c4.331,0,8.17,2.789,9.51,6.908c1.339,4.119-0.125,8.632-3.628,11.18
			c-0.213,0.155-22.48,16.586-47.056,47.944c-21.943,28-50.187,73.883-61.882,134.959l15.727,15.728
			c2.252,2.253,3.297,5.443,2.813,8.591c-0.151,0.99-14.017,95.004,17.991,160.53l10.041-8.607c2.799-2.398,6.69-3.064,10.126-1.729
			c3.436,1.333,5.86,4.448,6.308,8.106c0.039,0.311,4.351,33.03,25.841,69.402c28.541,48.309,72.424,80.016,130.427,94.243
			c5.364,1.315,8.646,6.73,7.33,12.094C832.158,1304.973,828.071,1308.028,823.573,1308.028z"/>
		<path style="fill:#683A32;" d="M776.03,892.782c-2.27,0-4.552-0.769-6.427-2.343c-4.228-3.552-4.777-9.86-1.225-14.089
			c28.673-34.135,61.921-36.206,84.762-31.937c24.083,4.503,41.424,16.848,42.151,17.371c4.481,3.228,5.497,9.478,2.269,13.959
			c-3.224,4.476-9.462,5.494-13.942,2.281c-2.376-1.692-57.151-39.732-99.925,11.19C781.715,891.568,778.882,892.782,776.03,892.782
			z"/>
		<path style="fill:#683A32;" d="M1101.152,864.135c-2.271,0-4.553-0.769-6.427-2.343c-4.229-3.553-4.777-9.86-1.226-14.089
			c28.675-34.135,61.922-36.205,84.763-31.937c24.084,4.503,41.425,16.848,42.15,17.371c4.481,3.228,5.497,9.478,2.27,13.959
			c-3.224,4.474-9.461,5.495-13.942,2.281c-2.375-1.691-57.152-39.73-99.926,11.19
			C1106.837,862.921,1104.004,864.135,1101.152,864.135z"/>
		<path style="fill:#FFFFFF;" d="M1251.143,1086.463l38.871-2.776c-22.212-80.518-91.624-138.824-91.624-138.824l27.765-11.106
			c0,0-83.294-99.953-233.224-99.953S794.412,992.063,794.412,992.063l26.377,11.106c-47.2,11.106-52.753,133.271-52.753,133.271"/>
		<path style="fill:#683A32;" d="M768.043,1146.439c-0.154,0-0.307-0.003-0.462-0.011c-5.517-0.25-9.786-4.926-9.536-10.443
			c0.059-1.283,1.514-31.811,8.917-64.242c7.309-32.019,17.828-54.487,31.4-67.167l-7.832-3.297
			c-4.731-1.993-7.186-7.244-5.679-12.152c0.518-1.688,13.053-41.795,44.712-82.348c42.379-54.284,98.87-82.976,163.365-82.976
			c79.84,0,140.961,28.018,178.176,51.522c40.433,25.537,61.839,50.96,62.73,52.03c2.049,2.46,2.797,5.751,2.012,8.854
			c-0.785,3.103-3.008,5.643-5.98,6.832l-13.054,5.222c21.448,20.995,65.528,70.013,82.839,132.764
			c0.797,2.889,0.257,5.982-1.473,8.43c-1.729,2.448-4.466,3.99-7.454,4.204l-38.871,2.776c-5.502,0.404-10.294-3.753-10.688-9.262
			s3.753-10.294,9.262-10.688l26.309-1.879c-24.193-70.456-84.149-121.558-84.785-122.094c-2.688-2.263-3.992-5.772-3.434-9.241
			c0.559-3.468,2.895-6.392,6.156-7.696l14.038-5.616c-9.59-9.32-26.111-23.798-48.949-38.144
			c-34.871-21.904-92.121-48.015-166.834-48.015c-58.732,0-108.26,25.16-147.207,74.781c-21.251,27.075-33.461,54.507-38.694,67.941
			l17.64,7.428c3.99,1.68,6.446,5.738,6.084,10.052c-0.362,4.315-3.46,7.906-7.674,8.898c-15.109,3.555-28.113,26.032-36.618,63.291
			c-7.007,30.699-8.423,60.402-8.436,60.699C777.782,1142.256,773.357,1146.439,768.043,1146.439z"/>
		<path style="fill:#683A32;" d="M1094.055,879.133c4.026,39.632-38.026,80.758-94.471,86.492
			c-56.445,5.735-105.909-26.094-109.936-65.726c-4.026-39.632,40.235-59.012,96.68-64.747
			C1042.773,829.419,1090.028,839.502,1094.055,879.133z"/>
		<path style="fill:#683A32;" d="M896.156,1146.497c-4.55,0-8.665-3.126-9.734-7.748c-0.167-0.722-4.042-17.891-0.241-37.658
			c3.649-18.982,15.088-43.938,48.854-55.026c32.591-10.701,43.338-30.887,51.186-45.626c5.229-9.821,10.168-19.098,20.389-21.163
			c10.219-2.066,18.373,4.565,27.006,11.586c12.954,10.535,30.698,24.963,64.886,22.17c35.433-2.896,55.654,15.662,66.388,31.737
			c11.178,16.741,14.273,34.068,14.4,34.798c0.942,5.441-2.705,10.617-8.147,11.56c-5.433,0.937-10.601-2.694-11.555-8.121
			c-0.402-2.244-10.257-54.069-59.457-50.04c-42.205,3.439-65.32-15.354-79.134-26.587c-3.546-2.884-8.33-6.774-10.405-7.401
			c-1.67,1.384-4.568,6.826-6.716,10.861c-8.368,15.716-22.372,42.02-62.6,55.229c-19.691,6.466-31.619,19.856-35.454,39.8
			c-2.962,15.406,0.055,29.24,0.086,29.375c1.245,5.381-2.108,10.752-7.489,11.997
			C897.661,1146.413,896.902,1146.497,896.156,1146.497z"/>
		<path style="fill:#683A32;" d="M938.155,1055.566c56.424-18.528,54.669-63.303,70.435-66.489
			c15.766-3.186,31.534,38.757,90.725,33.921c14.334-1.171,25.816,1.663,35.02,6.6c-8.612,19.257-32.604,44.432-96.719,61.265
			c-68.351,17.944-105.731-1.27-124.972-20.246C918.888,1064.462,927.163,1059.175,938.155,1055.566z"/>
		<path style="fill:#F78C8B;" d="M1045.088,1153.761c-61.288,8.251-105.904-51.613-92.689-81.284
			c13.215-29.671,75.86-10.658,75.86-10.658s24.435-38.896,63.331-14.461C1130.485,1071.794,1089.531,1147.778,1045.088,1153.761z"
			/>
		<path style="fill:#683A32;" d="M1033.629,1164.535c-38.787,0-67.669-23.198-81.766-44.908
			c-11.666-17.968-14.881-37.114-8.599-51.218c4.589-10.305,16.22-22.588,45.562-22.588c13.898,0,27.642,2.724,35.55,4.628
			c6.888-8.029,21.303-21.153,41.937-21.153c10.167,0,20.461,3.228,30.596,9.595c16.855,10.589,23.648,29.918,18.637,53.03
			c-6.708,30.935-35.043,67.162-69.122,71.751C1042.171,1164.244,1037.867,1164.535,1033.629,1164.535z M988.826,1065.821
			c-10.271,0-23.344,1.86-27.292,10.725c-3.462,7.774-0.74,20.108,7.104,32.189c11.237,17.307,34.212,35.8,64.992,35.8
			c3.349,0,6.756-0.23,10.125-0.684c21.985-2.961,46.398-29.208,52.245-56.169c2.241-10.336,2.372-24.254-9.729-31.856
			c-6.898-4.333-13.612-6.53-19.957-6.53c-17.875,0-29.475,17.665-29.587,17.844c-2.398,3.818-7.055,5.555-11.371,4.249
			C1025.178,1071.335,1006.698,1065.821,988.826,1065.821z"/>
		<path style="fill:#683A32;" d="M1029.568,1109.367c-3.442,0-6.786-1.778-8.64-4.97c-6.606-11.378-14.023-34.599,0.075-49.461
			c3.801-4.006,10.131-4.174,14.138-0.372c4.006,3.801,4.173,10.131,0.372,14.138c-6.092,6.421,0.084,21.059,2.728,25.68
			c2.735,4.783,1.095,10.892-3.679,13.643C1032.985,1108.935,1031.265,1109.367,1029.568,1109.367z"/>
	</g>
	<g>
		<g>
			<g>
				<path style="fill:#FFFFFF;" d="M1275.235,1294.352c22.608-31.834-14.54-122.531-14.54-122.531s-104.312-212.704,28.28-191.431
					c0,0-1.827-118.174,87.347-69.86c0,0,90.344-63.986,110.422,58.176c0,0,69.564-8.686,72.204,73.867
					c2.64,82.553-23.5,86.42-2.301,153.388c8.313,26.261,5.922,37.503,30.578,97.486"/>
				<path style="fill:#683A32;" d="M1275.226,1304.353c-2.003,0-4.024-0.6-5.781-1.848c-4.503-3.198-5.561-9.44-2.363-13.943
					c14.106-19.863-1.988-79.496-15.519-112.652c-1.774-3.654-16.644-34.711-27.764-71.643
					c-16.205-53.82-16.111-92.343,0.279-114.497c11.496-15.539,30.069-22.443,55.325-20.577
					c1.441-19.286,7.597-57.706,33.512-73.413c16.74-10.147,37.877-9.056,62.895,3.231c12.347-7.318,44.125-22.948,73.485-10.677
					c22.777,9.518,38.141,33.101,45.734,70.159c11.293,0.378,30.593,3.304,46.842,17.194c17.015,14.546,26.123,36.942,27.07,66.566
					c1.158,36.241-3.129,58.164-6.575,75.78c-4.576,23.398-7.6,38.856,3.813,74.909c2.731,8.63,4.341,15.632,6.044,23.045
					c3.584,15.594,7.646,33.268,24.248,73.657c2.1,5.108-0.339,10.951-5.447,13.051c-5.109,2.102-10.951-0.339-13.051-5.447
					c-17.228-41.911-21.485-60.436-25.241-76.78c-1.611-7.009-3.133-13.629-5.621-21.49c-12.952-40.918-9.166-60.275-4.373-84.783
					c3.422-17.493,7.3-37.32,6.213-71.303c-0.76-23.767-7.515-41.265-20.076-52.002c-17.521-14.98-40.662-12.289-40.893-12.261
					c-5.339,0.671-10.236-3-11.106-8.301c-5.707-34.72-17.559-56.088-35.226-63.512c-26.377-11.086-59.236,11.655-59.565,11.886
					c-3.104,2.181-7.192,2.428-10.527,0.621c-20.622-11.173-36.855-13.343-48.254-6.453c-20.535,12.417-24.525,52.846-24.33,67.376
					c0.04,2.952-1.228,5.776-3.461,7.706c-2.234,1.931-5.206,2.78-8.122,2.312c-23.012-3.69-38.9,0.143-47.23,11.396
					c-25.519,34.478,12.652,131.345,29.514,165.76c0.098,0.2,0.19,0.405,0.274,0.611c0.391,0.954,9.648,23.685,16.213,50.762
					c9.286,38.311,8.354,65.681-2.773,81.349C1281.438,1302.888,1278.356,1304.353,1275.226,1304.353z"/>
			</g>
			<g>
				<g>
					<path style="fill:#F78C8B;" d="M1344.912,1039.806c0,0,6.668-34.233,31.746-35.325c26.051-1.135,26.879,15.857,44.374,31.306
						c17.495,15.449,52.574,31.201,49.071,62.023c-3.504,30.822-31.286,30.041-79.464,28.302c0,0-57.68,0.73-66.062-12.716
						c-8.099-12.992-12.036-37.752-1.431-46.658S1344.249,1044.558,1344.912,1039.806z"/>
				</g>
			</g>
			<g>
				<g>
					
						<ellipse transform="matrix(0.4102 -0.912 0.912 0.4102 -55.3478 1979.2651)" style="fill:#F78C8B;" cx="1502.57" cy="1032.424" rx="26.114" ry="26.114"/>
				</g>
			</g>
			<g>
				<g>
					
						<ellipse transform="matrix(0.9954 -0.0955 0.0955 0.9954 -84.4129 140.069)" style="fill:#F78C8B;" cx="1420.988" cy="951.832" rx="26.114" ry="26.114"/>
				</g>
			</g>
			<g>
				<g>
					
						<ellipse transform="matrix(0.3039 -0.9527 0.9527 0.3039 18.4304 1947.0771)" style="fill:#F78C8B;" cx="1341.69" cy="960.926" rx="26.114" ry="26.114"/>
				</g>
			</g>
			<g>
				<g>
					
						<ellipse transform="matrix(0.9799 -0.1993 0.1993 0.9799 -180.2735 275.6474)" style="fill:#F78C8B;" cx="1279.031" cy="1033.26" rx="26.114" ry="26.114"/>
				</g>
			</g>
		</g>
		<path style="fill:#683A32;" d="M1822.05,1285.137h-468.61H556.15h-378.2c-6.63,0-12,5.37-12,12s5.37,12,12,12h427.66h680.5h535.94
			c6.63,0,12-5.37,12-12S1828.68,1285.137,1822.05,1285.137z"/>
		<g>
			<g>
				<path style="fill:#FFFFFF;" d="M704.677,1204.36c90.132,141.602-16.918,173.259-16.918,173.259
					c-23.837,84.146-106.181,45.892-106.181,45.892c-69.343,28.36-104.014-46.138-104.014-46.138
					c-82.345,2.902-73.309-116.58-43.652-165.514C466.17,1158.632,638.607,1100.56,704.677,1204.36z"/>
				<path style="fill:#683A32;" d="M622.391,1442.188c-17.984,0.001-33.757-5.143-40.937-7.908
					c-10.328,3.765-20.563,5.671-30.479,5.672c-0.003,0-0.007,0-0.011,0c-44.924,0-70.941-37.771-79.414-52.58
					c-24.774-0.879-44.054-12.373-55.884-33.377c-22.593-40.111-13.024-109.831,9.694-147.316
					c10.584-17.466,33.918-35.092,64.017-48.359c31.449-13.862,66.611-21.496,99.011-21.496c25.673,0,48.966,4.674,69.233,13.894
					c23.13,10.522,41.801,26.764,55.493,48.274c34.769,54.625,45.559,100.593,32.069,136.626
					c-11.662,31.152-37.985,44.993-49.303,49.662c-6.468,19.832-16.769,34.745-30.661,44.371
					C653.212,1437.968,638.802,1442.187,622.391,1442.188z M581.578,1413.512c1.441,0,2.879,0.312,4.214,0.932
					c0.149,0.068,17.085,7.745,36.598,7.744c28.103-0.002,46.858-15.913,55.748-47.294c0.935-3.301,3.497-5.892,6.786-6.864
					c0.266-0.081,30.505-9.603,41.619-39.668c11.022-29.813,0.827-69.728-30.301-118.632
					c-27.834-43.729-74.015-52.907-107.854-52.907c-62.629,0-128.696,31.794-145.924,60.221
					c-9.515,15.7-16.593,39.152-18.932,62.735c-2.58,26.005,0.816,48.876,9.56,64.4c9.199,16.331,23.58,23.937,44.12,23.201
					c4.007-0.116,7.724,2.134,9.419,5.776c0.211,0.448,22.504,46.795,64.334,46.795c0.003,0,0.005,0,0.007,0
					c8.559-0.001,17.583-1.917,26.821-5.695C579.007,1413.759,580.293,1413.512,581.578,1413.512z"/>
			</g>
			<g>
				<path style="fill:#FFFFFF;" d="M477.563,1377.374c0,0,19.623-25.067,16.803-36.346"/>
				<path style="fill:#683A32;" d="M477.556,1387.374c-2.156,0-4.328-0.693-6.157-2.126c-4.349-3.404-5.115-9.689-1.71-14.038
					c8.258-10.575,15.363-23.813,14.954-27.849c-1.28-5.328,1.972-10.703,7.299-12.034c5.36-1.344,10.788,1.919,12.126,7.276
					c1.882,7.531-0.801,17.041-8.445,29.929c-4.827,8.138-9.969,14.729-10.186,15.006
					C483.465,1386.058,480.526,1387.374,477.556,1387.374z"/>
			</g>
			<g>
				<path style="fill:#FFFFFF;" d="M581.578,1423.511c0,0,1.21-36.579,0-46.138"/>
				<path style="fill:#683A32;" d="M581.584,1433.512c-0.112,0-0.224-0.002-0.336-0.006c-5.52-0.183-9.847-4.805-9.664-10.324
					c0.457-13.837,0.882-38.167,0.074-44.552c-0.693-5.479,3.186-10.483,8.665-11.177c5.487-0.688,10.483,3.187,11.177,8.665
					c1.273,10.059,0.2,43.899,0.074,47.725C591.394,1429.249,586.953,1433.512,581.584,1433.512z"/>
			</g>
			<g>
				<path style="fill:#FFFFFF;" d="M687.759,1377.62c0,0-12.353-28.132-21.102-36.591"/>
				<path style="fill:#683A32;" d="M687.764,1387.621c-3.847,0-7.514-2.233-9.161-5.979c-4.809-10.941-13.85-28.544-18.897-33.424
					c-3.97-3.84-4.077-10.17-0.238-14.141c3.839-3.97,10.169-4.077,14.14-0.238c9.673,9.353,21.112,34.762,23.307,39.76
					c2.22,5.057-0.079,10.954-5.135,13.176C690.472,1387.349,689.107,1387.621,687.764,1387.621z"/>
			</g>
		</g>
	</g>
</g>
</svg>
